HIERARCHY
ROOT Root
{
	OFFSET 0.00000 0.00000 0.00000
	CHANNELS 6 Xposition Yposition Zposition Zrotation Xrotation Yrotation
	JOINT Hip
	{
		OFFSET 0 0 0	
		CHANNELS 3 Zrotation Xrotation Yrotation
		JOINT Tummy
		{
			OFFSET 0 0.04 0	
			CHANNELS 3 Zrotation Xrotation Yrotation
			JOINT ChestBottom
			{
				OFFSET 0 0.194 0	
				CHANNELS 3 Zrotation Xrotation Yrotation
				JOINT ChestTop
				{
					OFFSET 0 0.166 0	
					CHANNELS 3 Zrotation Xrotation Yrotation
					JOINT LeftCollar
					{
						OFFSET 0 0.1 0	
						CHANNELS 3 Zrotation Xrotation Yrotation
						JOINT LeftUpperArm
						{
							OFFSET 0.156 -0.02 0.03	
							CHANNELS 3 Zrotation Xrotation Yrotation
							JOINT LeftForeArm
							{
								OFFSET 0.035 -0.27 -0.01	
								CHANNELS 3 Zrotation Xrotation Yrotation
								JOINT LeftHand
								{
									OFFSET 0.01 -0.27 0.01	
									CHANNELS 3 Zrotation Xrotation Yrotation
									End Site
									{
										OFFSET 0 -0.15 0
									}
								}
							}
						}
					}
					JOINT RightCollar
					{
						OFFSET 0 0.1 0	
						CHANNELS 3 Zrotation Xrotation Yrotation
						JOINT RightUpperArm
						{
							OFFSET -0.156 -0.02 0.03	
							CHANNELS 3 Zrotation Xrotation Yrotation
							JOINT RightForeArm
							{
								OFFSET -0.035 -0.27 -0.01	
								CHANNELS 3 Zrotation Xrotation Yrotation
								JOINT RightHand
								{
									OFFSET -0.01 -0.27 0.01	
									CHANNELS 3 Zrotation Xrotation Yrotation
									End Site
									{
										OFFSET 0 -0.15 0
									}
								}
							}
						}
					}
					JOINT Neck
					{
						OFFSET 0 0.1 0	
						CHANNELS 3 Zrotation Xrotation Yrotation
						JOINT Head
						{
							OFFSET 0 0.127 0.03	
							CHANNELS 3 Zrotation Xrotation Yrotation
							End Site
							{
								OFFSET 0 0.127 0.03
							}
						}
					}
				}
			}
		}
	}
	JOINT LeftHip
	{
		OFFSET 0 0 0	
		CHANNELS 3 Zrotation Xrotation Yrotation
		JOINT LeftThigh
		{
			OFFSET 0.088 -0.06 0	
			CHANNELS 3 Zrotation Xrotation Yrotation
			JOINT LeftLowerLeg
			{
				OFFSET 0 -0.39 0.02	
				CHANNELS 3 Zrotation Xrotation Yrotation
				JOINT LeftFootTop
				{
					OFFSET 0 -0.43 -0.02	
					CHANNELS 3 Zrotation Xrotation Yrotation
					JOINT LeftFootFront
					{
						OFFSET 0 -0.07 0.085	
						CHANNELS 3 Zrotation Xrotation Yrotation
						End Site
						{
							OFFSET 0 -0.005 0.09
						}
					}
				}
				JOINT LeftHeel
				{
					OFFSET 0 -0.43 -0.02	
					CHANNELS 3 Zrotation Xrotation Yrotation
					End Site
					{
						OFFSET 0 -0.075 -0.05
					}
				}
			}
		}
	}
	JOINT RightHip
	{
		OFFSET 0 0 0	
		CHANNELS 3 Zrotation Xrotation Yrotation
		JOINT RightThigh
		{
			OFFSET -0.088 -0.06 0	
			CHANNELS 3 Zrotation Xrotation Yrotation
			JOINT RightLowerLeg
			{
				OFFSET 0 -0.39 0.02	
				CHANNELS 3 Zrotation Xrotation Yrotation
				JOINT RightFootTop
				{
					OFFSET 0 -0.43 -0.02	
					CHANNELS 3 Zrotation Xrotation Yrotation
					JOINT RightFootFront
					{
						OFFSET 0 -0.07 0.085	
						CHANNELS 3 Zrotation Xrotation Yrotation
						End Site
						{
							OFFSET 0 -0.005 0.09
						}
					}
				}
				JOINT RightHeel
				{
					OFFSET 0 -0.43 -0.02	
					CHANNELS 3 Zrotation Xrotation Yrotation
					End Site
					{
						OFFSET 0 -0.075 -0.05
					}
				}
			}
		}
	}
}
MOTION
Frames: 10
Frame Time: 0.025
0 0.60308 0 -0 0 -0 1.9321 -6.1636 3.82 0.96225 2.9339 0.70413 0.96225 2.9339 0.70413 0.81059 2.4637 0.59469 -0 0 -0 5.2774 -8.8753 20.003 31.414 -62.14 28.339 48.515 -0.48381 -29.244 -0 0 -0 1.8074 -15.209 -1.7881 24.223 -24.497 3.8455 5.6234 -22.492 27.998 -2.4752 -3.9227 -2.5514 -2.4752 -3.9227 -2.5514 1.9321 -6.1636 3.82 62.524 -58.364 42.292 -96.649 42.841 73.527 23.931 -1.6321 16.086 -0 0 4.569e-07 -0 0 -0 1.9321 -6.1636 3.82 12.705 -69.016 -8.4114 -123.36 70.982 110.39 -4.2236 -20.782 -9.171 -2.5038e-08 -2.0326 -1.4114e-06 -0 0 -0 
0 0.60307 0 -0 0 -0 1.9362 -6.1605 3.8273 0.95347 2.941 0.70482 0.95347 2.941 0.70482 0.80323 2.4697 0.59525 -0 0 -0 5.2887 -8.9049 19.988 31.456 -62.153 28.38 48.516 -0.47723 -29.266 -0 0 -0 1.814 -15.241 -1.7957 24.218 -24.485 3.8614 5.6253 -22.5 27.969 -2.4164 -4.0231 -2.9469 -2.4164 -4.0231 -2.9469 1.9362 -6.1605 3.8273 62.523 -58.372 42.289 -96.652 42.837 73.514 23.93 -1.6271 16.099 0.0028205 0.0046778 -0.00056496 -0 0 -0 1.9362 -6.1605 3.8273 12.702 -69.022 -8.4139 -123.37 70.983 110.39 -4.2264 -20.78 -9.171 0.02016 -2.0324 -0.0037843 -0 0 -0 
0 0.60305 0 -0 0 -0 1.9411 -6.1565 3.8352 0.93949 2.9516 0.70538 0.93949 2.9516 0.70538 0.7915 2.4786 0.59569 -0 0 -0 5.311 -8.9442 19.979 31.492 -62.176 28.427 48.521 -0.49342 -29.284 -0 0 -0 1.8305 -15.288 -1.802 24.207 -24.468 3.8842 5.6353 -22.516 27.944 -2.3282 -4.1527 -3.4745 -2.3282 -4.1527 -3.4745 1.9411 -6.1565 3.8352 62.524 -58.38 42.288 -96.66 42.833 73.499 23.931 -1.6172 16.119 0.0028948 0.0071499 -0.0010609 -0 0 -0 1.9411 -6.1565 3.8352 12.701 -69.031 -8.4139 -123.38 70.985 110.39 -4.2099 -20.789 -9.1662 0.027877 -2.025 -0.0050041 -0 0 -0 
0 0.60304 0 -0 0 -0 1.9446 -6.154 3.8407 0.92399 2.962 0.70492 0.92399 2.962 0.70492 0.77848 2.4873 0.59525 -0 0 -0 5.3392 -8.975 19.993 31.502 -62.202 28.452 48.522 -0.5259 -29.293 -0 0 -0 1.8565 -15.337 -1.8012 24.187 -24.446 3.9055 5.6516 -22.536 27.921 -2.2322 -4.2703 -3.9664 -2.2322 -4.2703 -3.9664 1.9446 -6.154 3.8407 62.526 -58.385 42.291 -96.673 42.833 73.487 23.931 -1.6073 16.138 0.0030024 0.0092005 -0.0014441 -0 0 -0 1.9446 -6.154 3.8407 12.696 -69.039 -8.4148 -123.4 70.989 110.41 -4.1868 -20.805 -9.1599 0.027311 -2.0121 -0.0044285 -0 0 -0 
0 0.60302 0 -0 0 -0 1.9477 -6.1529 3.8449 0.91101 2.9711 0.70191 0.91101 2.9711 0.70191 0.76758 2.495 0.59269 -0 0 -0 5.3595 -8.9954 20.02 31.51 -62.221 28.474 48.517 -0.56146 -29.3 -0 0 -0 1.8853 -15.389 -1.788 24.155 -24.416 3.9157 5.6715 -22.556 27.905 -2.139 -4.3697 -4.3727 -2.139 -4.3697 -4.3727 1.9477 -6.1529 3.8449 62.529 -58.388 42.294 -96.688 42.837 73.478 23.93 -1.5981 16.157 0.0038379 0.011963 -0.001488 -0 0 -0 1.9477 -6.1529 3.8449 12.681 -69.047 -8.4244 -123.42 70.993 110.43 -4.1653 -20.824 -9.1548 0.021477 -1.9957 -0.0046927 -0 0 -0 
0 0.60301 0 -0 0 -0 1.95 -6.1502 3.8491 0.90382 2.9813 0.69541 0.90382 2.9813 0.69541 0.76152 2.5035 0.58722 -0 0 -0 5.3638 -9.024 20.05 31.522 -62.228 28.503 48.511 -0.58658 -29.31 -0 0 -0 1.9085 -15.446 -1.7613 24.115 -24.384 3.9157 5.691 -22.572 27.897 -2.0526 -4.4567 -4.6878 -2.0526 -4.4567 -4.6878 1.95 -6.1502 3.8491 62.533 -58.393 42.299 -96.705 42.842 73.472 23.927 -1.5879 16.176 0.0073976 0.01554 -0.0017835 -0 0 -0 1.95 -6.1502 3.8491 12.654 -69.057 -8.4457 -123.44 70.997 110.45 -4.1513 -20.845 -9.1534 0.015093 -1.9756 -0.0066282 -0 0 -0 
0 0.60299 0 -0 0 -0 1.9506 -6.1448 3.8534 0.90295 2.9915 0.6862 0.90295 2.9915 0.6862 0.76077 2.5122 0.57949 -0 0 -0 5.3552 -9.0672 20.088 31.515 -62.228 28.515 48.509 -0.60047 -29.325 -0 0 -0 1.923 -15.502 -1.7337 24.078 -24.355 3.9182 5.7054 -22.587 27.898 -1.9761 -4.5315 -4.9202 -1.9761 -4.5315 -4.9202 1.9506 -6.1448 3.8534 62.542 -58.403 42.305 -96.721 42.846 73.465 23.926 -1.5729 16.198 0.011317 0.016813 -0.0019483 -0 0 -0 1.9506 -6.1448 3.8534 12.624 -69.07 -8.4754 -123.44 70.999 110.47 -4.146 -20.864 -9.1573 0.010068 -1.9534 -0.0076007 -0 0 -0 
0 0.60298 0 -0 0 -0 1.9527 -6.1373 3.8584 0.90468 2.9993 0.67614 0.90468 2.9993 0.67613 0.76219 2.5187 0.57105 -0 0 -0 5.3425 -9.1165 20.131 31.49 -62.226 28.505 48.509 -0.61242 -29.346 -0 0 -0 1.9339 -15.551 -1.7175 24.046 -24.324 3.9314 5.7144 -22.601 27.898 -1.9092 -4.5914 -5.0848 -1.9092 -4.5914 -5.0848 1.9527 -6.1373 3.8584 62.549 -58.417 42.312 -96.732 42.848 73.455 23.929 -1.5517 16.222 0.0094277 0.011394 -0.0012716 -0 0 -0 1.9527 -6.1373 3.8584 12.59 -69.084 -8.5098 -123.43 71 110.47 -4.1446 -20.871 -9.1635 -0.0011391 -1.9405 -0.007373 -0 0 -0 
0 0.60297 0 -0 0 -0 1.9584 -6.1282 3.8649 0.90545 3.0048 0.66648 0.90545 3.0048 0.66648 0.76281 2.5234 0.56295 -0 0 -0 5.3332 -9.1679 20.173 31.465 -62.227 28.488 48.507 -0.62107 -29.37 -0 0 -0 1.9466 -15.596 -1.7139 24.018 -24.29 3.9539 5.7186 -22.613 27.889 -1.8489 -4.6419 -5.2001 -1.8489 -4.6419 -5.2001 1.9584 -6.1282 3.8649 62.55 -58.435 42.318 -96.735 42.85 73.44 23.931 -1.5315 16.245 0.0075528 0.0075136 -0.001868 -0 0 -0 1.9584 -6.1282 3.8649 12.557 -69.098 -8.5426 -123.42 71.001 110.46 -4.1507 -20.856 -9.1721 -0.011023 -1.9489 -0.0072236 -0 0 -0 
0 0.60295 0 -0 0 -0 1.9662 -6.1187 3.8738 0.90354 3.0109 0.65817 0.90354 3.0109 0.65817 0.76118 2.5284 0.55597 -0 0 -0 5.3327 -9.2245 20.21 31.444 -62.233 28.469 48.507 -0.62874 -29.393 -0 0 -0 1.965 -15.643 -1.7182 23.989 -24.255 3.9786 5.7201 -22.629 27.879 -1.7946 -4.6921 -5.284 -1.7946 -4.6921 -5.284 1.9662 -6.1187 3.8738 62.546 -58.457 42.322 -96.729 42.85 73.424 23.932 -1.5113 16.265 0.0074166 0.0054424 -0.0024405 -0 0 -0 1.9662 -6.1187 3.8738 12.524 -69.112 -8.5727 -123.4 71.002 110.45 -4.1655 -20.833 -9.1845 -0.018522 -1.9634 -0.008108 -0 0 -0 
